<svg xmlns="http://www.w3.org/2000/svg" width="32" height="32" viewBox="0 0 32 32">
    <path fill="#fff" d="M11 .9a16.257 16.257 0 0 0-9.24 7.938 15.144 15.144 0 0 0-1.412 4.026 15.672 15.672 0 0 0 1.416 10.342 16.3 16.3 0 0 0 10.363 8.277 17.888 17.888 0 0 0 8.359.085 14.834 14.834 0 0 0 6.684-3.4 14.544 14.544 0 0 0 4.13-6.637 18.366 18.366 0 0 0 .415-8.5H16.358v6.246h8.895a7.507 7.507 0 0 1-3.264 4.942A9.383 9.383 0 0 1 18.4 25.61a10.806 10.806 0 0 1-3.9-.017 9.693 9.693 0 0 1-3.627-1.54 10.026 10.026 0 0 1-3.748-4.909 9.507 9.507 0 0 1 0-6.229 9.893 9.893 0 0 1 2.359-3.774 9.507 9.507 0 0 1 4.87-2.657 9.745 9.745 0 0 1 4.784.186 8.945 8.945 0 0 1 3.524 2.03l3.005-2.945c.518-.525 1.071-1.032 1.589-1.574A15.527 15.527 0 0 0 22.005 1 16.789 16.789 0 0 0 11 .9z" transform="translate(-.023 -.021)"/>
    <g>
        <path fill="#ea4535" d="M19.34.9a16.79 16.79 0 0 1 11 .1 15.8 15.8 0 0 1 5.25 3.182c-.5.542-1.054 1.049-1.589 1.574L31 8.7a8.826 8.826 0 0 0-3.523-2.031 9.753 9.753 0 0 0-4.784-.186 9.6 9.6 0 0 0-4.87 2.64 9.893 9.893 0 0 0-2.369 3.777c-1.779-1.356-3.554-2.71-5.354-4.064A16.311 16.311 0 0 1 19.34.9z" transform="translate(1.74) translate(-10.1 -.021)"/>
    </g>
    <g>
        <path fill="#f9bc15" d="M.348 56.028A16 16 0 0 1 1.764 52c1.779 1.354 3.575 2.708 5.354 4.062a9.507 9.507 0 0 0 0 6.229C5.339 63.645 3.56 65 1.764 66.353A15.581 15.581 0 0 1 .348 56.028z" transform="translate(0 8.798) translate(-.023 -52)"/>
    </g>
    <g>
        <path fill="#557ebf" d="M94.5 76.8h15.354a18.377 18.377 0 0 1-.415 8.5 14.457 14.457 0 0 1-4.128 6.635c-1.727-1.32-3.454-2.624-5.181-3.944a7.507 7.507 0 0 0 3.264-4.942H94.5z" transform="translate(16.317 12.996) translate(-94.5 -76.8)"/>
    </g>
    <g>
        <path fill="#36a852" d="M10.1 117.062c1.779-1.354 3.558-2.708 5.354-4.062a9.908 9.908 0 0 0 7.375 6.449 11.2 11.2 0 0 0 3.9.017 9.383 9.383 0 0 0 3.592-1.388c1.727 1.32 3.454 2.624 5.181 3.944a14.833 14.833 0 0 1-6.684 3.4 17.892 17.892 0 0 1-8.359-.085 16.4 16.4 0 0 1-5.924-2.928 16.074 16.074 0 0 1-4.435-5.347z" transform="translate(1.74 19.123) translate(-10.1 -113)"/>
    </g>
</svg>
