<svg xmlns="http://www.w3.org/2000/svg" width="32" height="32" viewBox="0 0 32 32">
    <g fill="#333">
        <path stroke="rgba(0,0,0,0)" stroke-miterlimit="10" d="M-3171.5 799.322c-2.375 0-2.645-.012-3.54-.052a4.765 4.765 0 0 1-1.633-.305 2.607 2.607 0 0 1-1.007-.655 2.668 2.668 0 0 1-.656-1.007 4.962 4.962 0 0 1-.3-1.632c-.042-.927-.051-1.2-.051-3.542s.009-2.619.051-3.547a4.948 4.948 0 0 1 .3-1.626 2.676 2.676 0 0 1 .656-1.012 2.738 2.738 0 0 1 1.007-.656 4.837 4.837 0 0 1 1.631-.3c.9-.04 1.167-.052 3.542-.052s2.65.012 3.546.052a4.79 4.79 0 0 1 1.627.3 2.776 2.776 0 0 1 1.013.656 2.775 2.775 0 0 1 .655 1.012 4.857 4.857 0 0 1 .3 1.626c.046.913.052 1.169.052 3.547s-.006 2.629-.052 3.542a4.864 4.864 0 0 1-.3 1.632 2.733 2.733 0 0 1-.655 1.007 2.645 2.645 0 0 1-1.013.655 4.708 4.708 0 0 1-1.625.305c-.894.04-1.165.052-3.548.052zm0-11.7a4.509 4.509 0 0 0-4.5 4.506 4.507 4.507 0 0 0 4.5 4.5 4.51 4.51 0 0 0 4.507-4.5 4.512 4.512 0 0 0-4.507-4.506zm4.683-1.229a1.054 1.054 0 0 0-1.053 1.053 1.054 1.054 0 0 0 1.053 1.053 1.054 1.054 0 0 0 1.053-1.053 1.054 1.054 0 0 0-1.05-1.053zm-4.683 8.658a2.926 2.926 0 0 1-2.922-2.922 2.928 2.928 0 0 1 2.922-2.927 2.931 2.931 0 0 1 2.928 2.927 2.928 2.928 0 0 1-2.928 2.922z" transform="translate(-374.312 -116.937) translate(3561.808 -659.192)"/>
        <path d="M401.624 121.625a15.992 15.992 0 1 0 4.688 11.312 15.933 15.933 0 0 0-4.688-11.312zm-2.592 14.926a6.4 6.4 0 0 1-.408 2.132 4.247 4.247 0 0 1-1.012 1.554 4.335 4.335 0 0 1-1.554 1.012 6.383 6.383 0 0 1-2.127.408c-.934.041-1.234.052-3.619.052s-2.68-.011-3.614-.052a6.421 6.421 0 0 1-2.132-.408 4.488 4.488 0 0 1-2.566-2.566 6.564 6.564 0 0 1-.408-2.132c-.041-.934-.051-1.234-.051-3.614s.01-2.679.051-3.619a6.528 6.528 0 0 1 .408-2.127 4.346 4.346 0 0 1 1.012-1.554 4.291 4.291 0 0 1 1.554-1.012 6.421 6.421 0 0 1 2.132-.408c.934-.042 1.234-.052 3.614-.052s2.685.01 3.619.052a6.383 6.383 0 0 1 2.127.408 4.484 4.484 0 0 1 2.566 2.566 6.365 6.365 0 0 1 .408 2.127c.046.94.052 1.234.052 3.619s-.005 2.679-.052 3.614z" transform="translate(-374.312 -116.937)"/>
    </g>
</svg>
