<svg xmlns="http://www.w3.org/2000/svg" width="24" height="20" viewBox="0 0 24 20">
    <path fill="#333" d="M6 22l6-8H8V2H4v12H0zm12.43-4.814v-.934c.352-.015 1.9.029 1.9-1.232h1.146V22H20.07v-4.814h-1.64zM17.5 3.089A3.674 3.674 0 0 1 20.169 2a3.491 3.491 0 0 1 3.311 2.194A8.514 8.514 0 0 1 24 7.445c0 3.048-.947 5.757-3.994 5.757a3.121 3.121 0 0 1-3.288-2.812h2.112a1.2 1.2 0 0 0 1.27 1.071c1.445 0 1.693-1.6 1.763-3.027-1.033 1.3-3.106 1.15-4.366.026-1.388-1.238-1.291-3.98 0-5.371zm3.566 4.282a1.751 1.751 0 0 0 .722-1.6 2.265 2.265 0 0 0-.428-1.451 1.419 1.419 0 0 0-1.172-.536 1.46 1.46 0 0 0-.93.305 1.929 1.929 0 0 0-.606 1.611 2.24 2.24 0 0 0 .391 1.439 1.456 1.456 0 0 0 1.2.48 1.473 1.473 0 0 0 .825-.252z" transform="translate(0 -2)"/>
</svg>
