<svg xmlns="http://www.w3.org/2000/svg" width="16" height="18" viewBox="0 0 16 18">
    <path fill="#333" d="M616.785-1433h-13.791v-3.99h1.057v-4.51a5.688 5.688 0 0 1 5.838-5.51 5.688 5.688 0 0 1 5.839 5.51v4.51h1.057v3.99zm-12.735-2.993v2h11.68v-2h-1.057v.006h-9.567v-.006zm5.839-10.02a4.659 4.659 0 0 0-4.783 4.514v4.51h9.566v-4.51a4.66 4.66 0 0 0-4.782-4.514zm6.274.943l-.5-.862 1.727-1 .5.862-1.725 1zm-12.547 0l-1.726-1 .5-.862 1.726 1-.5.861zm10.176-2.816l-.861-.5 1-1.727.863.5-1 1.725zm-7.807 0l-1-1.725.862-.5 1 1.727-.862.5zm4.4-1.12h-1V-1451h1v1.993z" transform="translate(-601.889 1451)"/>
</svg>
