<svg xmlns="http://www.w3.org/2000/svg" width="32" height="32" viewBox="0 0 32 32">
    <g>
        <circle cx="16" cy="16" r="16" fill="#1da1f2"/>
    </g>
    <g>
        <path fill="#fff" d="M95.6 129.78a10.9 10.9 0 0 0 10.972-10.98c0-.168 0-.336-.008-.5a7.9 7.9 0 0 0 1.928-2 7.83 7.83 0 0 1-2.216.608 3.855 3.855 0 0 0 1.7-2.136 7.812 7.812 0 0 1-2.448.936 3.86 3.86 0 0 0-6.672 2.64 3.535 3.535 0 0 0 .1.88A10.943 10.943 0 0 1 91 115.2a3.856 3.856 0 0 0 1.2 5.144 3.789 3.789 0 0 1-1.744-.48v.048a3.862 3.862 0 0 0 3.1 3.784 3.845 3.845 0 0 1-1.016.136 3.683 3.683 0 0 1-.728-.072 3.852 3.852 0 0 0 3.6 2.68 7.755 7.755 0 0 1-4.792 1.648 7.013 7.013 0 0 1-.92-.056 10.748 10.748 0 0 0 5.9 1.744" transform="translate(7.176 9.16) translate(-89.7 -114.5)"/>
    </g>
</svg>
