<svg xmlns="http://www.w3.org/2000/svg" width="32" height="32" viewBox="0 0 32 32">
    <g>
        <path fill="#333" d="M92.8 121.625a16 16 0 1 0 4.683 11.312 15.954 15.954 0 0 0-4.683-11.312zm-4.538 7.832a9.944 9.944 0 0 1-15.3 8.834 7.028 7.028 0 0 0 5.179-1.445 3.506 3.506 0 0 1-3.268-2.432 3.518 3.518 0 0 0 1.58-.057 3.5 3.5 0 0 1-2.8-3.475 3.542 3.542 0 0 0 1.585.439 3.5 3.5 0 0 1-1.084-4.673 9.918 9.918 0 0 0 7.208 3.656 3.5 3.5 0 0 1 5.963-3.191 6.932 6.932 0 0 0 2.22-.852A3.488 3.488 0 0 1 88 128.2a7.053 7.053 0 0 0 2.008-.547 7.082 7.082 0 0 1-1.748 1.804z" transform="translate(-65.481 -116.937)"/>
    </g>
</svg>
