<svg xmlns="http://www.w3.org/2000/svg" width="13" height="14.999" viewBox="0 0 13 14.999">
    <g>
        <path fill="none" stroke="#0a0a0a" stroke-linejoin="round" d="M6785 659a2.752 2.752 0 0 1-2.749-2.749 1.308 1.308 0 0 1 0-.138h.124a7.521 7.521 0 0 1-3.378-.947l1.1-1.307a4.209 4.209 0 0 0 1.038-2.735v-.665c0-1.79 1.719-3.247 3.835-3.257h-1.628v-.55a1.65 1.65 0 0 1 3.3 0v.549h-1.628c2.117.01 3.835 1.467 3.835 3.257v.665a4.209 4.209 0 0 0 1.038 2.735l1.106 1.307a7.646 7.646 0 0 1-3.379.948h.123a.937.937 0 0 1 .007.138A2.753 2.753 0 0 1 6785 659zm-2.62-2.887a24.945 24.945 0 0 0 5.242 0z" transform="translate(.5 .5) translate(-6779 -645)"/>
    </g>
</svg>
