<svg xmlns="http://www.w3.org/2000/svg" width="24" height="20" viewBox="0 0 24 20">
    <path fill="#333" d="M6 22l6-8H8V2H4v12H0zm13.936-6.323a2.291 2.291 0 0 1 3.737.691A5.453 5.453 0 0 1 24 18.312a6.177 6.177 0 0 1-.313 2.129A2.181 2.181 0 0 1 21.5 22a1.951 1.951 0 0 1-2.056-1.758h1.32a.754.754 0 0 0 .8.67c.9 0 1.06-1 1.1-1.893a1.918 1.918 0 0 1-2.73.016 2.554 2.554 0 0 1 0-3.358zm2.23 2.677a1.449 1.449 0 0 0 .184-1.907.968.968 0 0 0-1.314-.144 1.612 1.612 0 0 0-.137 1.909 1.009 1.009 0 0 0 1.267.142zM18 5.475v-1.5c.565-.025 3.163.046 3.163-1.977H23V13h-2.255V5.475H18z" transform="translate(0 -2)"/>
</svg>
