<svg xmlns="http://www.w3.org/2000/svg" width="18" height="18" viewBox="0 0 18 18">
    <path fill="#333" d="M3.75 16.5H0v-9h3.75zm13.211-6.309c-.643-.086-.434-.55.023-.691A1.2 1.2 0 0 0 18 8.367c0-.5-.375-1.172-1.7-1.117a9.083 9.083 0 0 1-3.734-.664C13.242 3.844 13.078 0 11.3 0c-1.2 0-1.425 1.355-1.785 2.6C8.6 5.783 7.031 7.115 5.25 7.766v8.158C8.537 16.451 10.01 18 13.129 18c2.4 0 3.639-1.3 3.639-2 0-.251-.2-.43-.721-.469-.607-.046-.55-.608.024-.715.95-.175 1.369-.686 1.369-1.157a.952.952 0 0 0-.823-.886c-.628-.142-.5-.568.023-.609.85-.068 1.266-.573 1.266-1.057a.967.967 0 0 0-.945-.916z"/>
</svg>
