<svg xmlns="http://www.w3.org/2000/svg" width="32" height="32" viewBox="0 0 32 32">
    <g transform="translate(-860 -393)">
        <rect width="32" height="32" fill="#333" rx="16" transform="translate(860 393)"/>
        <path fill="#fff" d="M10.292 13.991L7.585 16.7A4.443 4.443 0 0 1 1.3 10.415l3.65-3.649a4.416 4.416 0 0 1 7.1 1.145l-1.195 1.194a2.871 2.871 0 0 0-4.8-1.24L2.4 11.516A2.886 2.886 0 0 0 6.483 15.6L8.3 13.778a5.612 5.612 0 0 0 1.992.213zM10.413 1.3L7.732 3.984a5.677 5.677 0 0 1 1.99.212L11.517 2.4A2.885 2.885 0 1 1 15.6 6.485l-3.623 3.623a2.893 2.893 0 0 1-4.079 0 2.825 2.825 0 0 1-.717-1.232l-.063.051-1.144 1.137a4.414 4.414 0 0 0 7.1 1.146L16.7 7.586A4.444 4.444 0 0 0 10.413 1.3z" transform="translate(867 400)"/>
    </g>
</svg>
