<svg xmlns="http://www.w3.org/2000/svg" width="240" height="216.14" viewBox="0 0 240 216.14">
    <defs>
        <style>
            .cls-1{fill:#baf4ee}.cls-3{fill:#ffb031}.cls-4{fill:#ff9433}.cls-6{fill:#00c8b7}.cls-8{fill:#fff}.cls-11{fill:#d9dbdb}
        </style>
    </defs>
    <g id="login_mailpic" transform="translate(-160.315 -95.275)">
        <g id="그룹_760" transform="translate(162.431 102.301)">
            <g id="그룹_749" transform="translate(2.127)">
                <path id="패스_4691" d="M76.262 4.814c42.119 2.659 78.418 38.958 81.076 81.077S128.009 160 85.891 157.339 7.473 118.381 4.814 76.262 34.144 2.155 76.262 4.814z" class="cls-1" transform="rotate(-45 121.97 50.522)"/>
                <path id="패스_232" fill="#7fd6cb" d="M306.822 206.509v24.021a75.3 75.3 0 0 1-10.062 10.313v-34.334h-.016v-.081c-.046-.178-4.937-3.752-8.7-6.466v-1.5l4.552-1.038a9.746 9.746 0 0 1 5.588.382c.789.3 1.61.586 2.43.818v3.138a77.276 77.276 0 0 1 6.191 4.665v.081z" opacity="0.73" transform="translate(-125.944 -88.292)"/>
            </g>
            <g id="그룹_759" transform="translate(0 9.374)">
                <g id="그룹_750" transform="translate(1.395)">
                    <path id="패스_233" d="M163.011 110.469l23.789 49.195 17.389-10.483 10.077 12.9 1.819-21.768 21.045-11.3z" class="cls-3" transform="translate(-163.011 -110.469)"/>
                    <path id="패스_234" d="M203.51 145.276l-21.244 12.812 17.389-10.488 10.077 12.9 1.819-21.768-33.535-17.6z" class="cls-4" transform="translate(-158.474 -108.894)"/>
                    <path id="패스_235" fill="#f73" d="M211.106 144.076l-33.089-22.936 33.535 17.6z" transform="translate(-158.474 -108.894)"/>
                </g>
                <g id="그룹_751" transform="translate(20.44 54.524)">
                    <path id="패스_236" d="M202.862 161.205a29.145 29.145 0 0 0-.707-2.843l1.632-.384a30.608 30.608 0 0 1 .74 2.974z" class="cls-6" transform="translate(-170.222 -157.978)"/>
                    <path id="패스_237" d="M190.573 193.455a15.258 15.258 0 0 1-6.782-1.995l.934-1.239a13.422 13.422 0 0 0 5.961 1.749zm7.016-1.214l-.745-1.335a16.875 16.875 0 0 0 5.056-3.506l1.257.994a18.49 18.49 0 0 1-5.568 3.847zm-18.5-5.533a11.1 11.1 0 0 1-1.456-5.408c0-.15 0-.3.01-.452l.021-.323 1.684.109-.017.271c-.005.134-.009.265-.009.395a9.735 9.735 0 0 0 1.281 4.749zm65.343-.34l-.008-1.488c2.2-.009 4.463-.088 6.728-.235l.124 1.484c-2.301.15-4.603.23-6.842.24zm-6.85-.2l-1.078-.073c-2.076-.153-3.958-.358-5.751-.632l.286-1.467c1.745.266 3.579.467 5.6.616l1.056.07zm20.5-.677l-.228-1.475c2.172-.261 4.411-.586 6.655-.967l.319 1.461c-2.272.39-4.542.722-6.746.99zm-34.038-1.5a35.077 35.077 0 0 1-5.532-2.16c-.264-.131-.529-.267-.789-.406l.872-1.275c.246.131.494.259.745.383a33.274 33.274 0 0 0 5.248 2.05zm-16.854-.591l-1.465-.741a31.733 31.733 0 0 0 2.786-5.308l1.589.5a33.275 33.275 0 0 1-2.91 5.549zm64.314-.165l-.4-1.446c2.112-.452 4.311-.965 6.532-1.525l.465 1.431c-2.242.565-4.461 1.083-6.601 1.539zm13.123-3.3l-.521-1.416q3.219-.919 6.407-1.92l.565 1.4q-3.207 1.01-6.451 1.939zm-72.544-1.961a47.761 47.761 0 0 0-5.028-2.915l-.565-.264.774-1.323c.2.091.4.186.6.281a49.966 49.966 0 0 1 5.213 3.018zm-30.367-2.238l-1.181-1.064a15.1 15.1 0 0 1 6.216-2.939l.568 1.4a13.79 13.79 0 0 0-5.603 2.606zm18.6-2.906a30.3 30.3 0 0 0-5.853-.57l-.685.007-.042-1.487a32.291 32.291 0 0 1 6.949.6zm11.562-.877l-1.663-.261a30.57 30.57 0 0 0 .6-5.828l1.689.007a31.856 31.856 0 0 1-.621 6.085z" class="cls-6" transform="translate(-177.635 -156.813)"/>
                    <path id="패스_238" d="M269.848 174.932l-.6-1.391q1.576-.53 3.149-1.073l.613 1.388q-1.576.544-3.162 1.076z" class="cls-6" transform="translate(-149.94 -155.838)"/>
                </g>
                <path id="패스_239" d="M310.928 208.224a1.624 1.624 0 0 1-1.68-1.345 1.551 1.551 0 0 1 1.517-1.624 42.1 42.1 0 0 0 26.441-12.091 1.85 1.85 0 0 1 2.382-.145 1.368 1.368 0 0 1 .164 2.1 45.615 45.615 0 0 1-28.66 13.1q-.084.005-.164.005z" class="cls-6" transform="translate(-117.41 -98.334)"/>
                <g id="그룹_755" transform="translate(55.259 41.777)">
                    <g id="그룹_754">
                        <path id="패스_240" fill="#7a4c08" d="M322.046 210.681l-58.838 30.577-58.837-30.577a.263.263 0 0 1 .009-.084c.048-.194 3.3-2.583 8.249-6.13.047-.033.086-.067.134-.1 16.246-11.625 50.445-35.43 50.445-35.43s34.2 23.806 50.446 35.43c5.03 3.6 8.335 6.027 8.383 6.231a.263.263 0 0 1 .009.083z" transform="translate(-204.371 -143.613)"/>
                        <g id="그룹_752" transform="translate(9.693)">
                            <path id="패스_241" d="M285.156 146.871h-63.482c-5.445 0-9.86 3.891-9.86 8.689v84.586c0 4.8 4.415 8.688 9.86 8.688h79.545c5.445 0 9.86-3.889 9.86-8.688v-70.43z" class="cls-8" transform="translate(-211.814 -146.871)"/>
                            <path id="패스_242" fill="#e6e8e8" d="M268.131 161.027c0 4.8 4.414 8.688 9.86 8.688h16.063l-25.922-22.844z" transform="translate(-194.789 -146.871)"/>
                            <rect id="사각형_497" width="28.926" height="25.491" fill="#82ebe3" rx="2.697" transform="translate(15.016 14.298)"/>
                            <path id="패스_243" d="M278.753 187.713H226.2a2.678 2.678 0 0 0-2.83 2.494 2.678 2.678 0 0 0 2.83 2.494h52.552a2.678 2.678 0 0 0 2.83-2.494 2.678 2.678 0 0 0-2.829-2.494z" class="cls-11" transform="translate(-208.32 -140.84)"/>
                            <path id="패스_244" d="M278.753 198.537H226.2a2.678 2.678 0 0 0-2.83 2.494 2.678 2.678 0 0 0 2.83 2.494h52.552a2.678 2.678 0 0 0 2.83-2.494 2.678 2.678 0 0 0-2.829-2.494z" class="cls-11" transform="translate(-208.32 -139.242)"/>
                            <path id="패스_245" d="M254.887 209.037H226.2a2.678 2.678 0 0 0-2.83 2.494 2.678 2.678 0 0 0 2.83 2.494h28.686a2.678 2.678 0 0 0 2.83-2.494 2.678 2.678 0 0 0-2.829-2.494z" class="cls-11" transform="translate(-208.32 -137.692)"/>
                        </g>
                        <g id="그룹_753" transform="translate(.007 67.067)">
                            <path id="패스_246" d="M322.051 205.309v49.744c0 3.476-3.225 6.318-7.171 6.318H211.527c-3.946 0-7.151-2.842-7.151-6.318v-49.744l58.837 30.571z" class="cls-3" transform="translate(-204.376 -205.309)"/>
                            <path id="패스_247" d="M319.6 256.727l-37.87-33.373-18.98 9.862-18.986-9.865-37.864 33.375a7.58 7.58 0 0 0 5.173 1.981h103.349a7.612 7.612 0 0 0 5.178-1.98z" class="cls-4" transform="translate(-203.917 -202.645)"/>
                        </g>
                    </g>
                </g>
                <g id="그룹_758" transform="translate(153.052 40.402)">
                    <g id="그룹_757">
                        <path id="패스_248" d="M311.235 145.828c-16.938 1.466-30.47 13.768-31.68 28.728a28.283 28.283 0 0 0 6.2 19.955 6.8 6.8 0 0 1 .817 7.2l-2.793 5.927 11.421-2.608a9.688 9.688 0 0 1 5.589.381 39.559 39.559 0 0 0 17.517 2.411c16.625-1.419 30.077-13.25 31.683-27.9 2.151-19.655-16.443-36.022-38.754-34.094z" class="cls-6" transform="translate(-279.463 -145.673)"/>
                        <g id="그룹_756" transform="translate(16.85 18.009)">
                            <path id="패스_249" d="M311.773 190.01l1.943-1.711s-1.543-3.205 4.927-8.609c3.85-3.217 4.712-6.332 4.4-8.877-.5-4.054-4.255-7.363-8.853-7.8-2.89-.275-6.424.483-10.073 3.877-6.133 5.7-9.769 4.34-9.769 4.34l-1.948 1.71z" class="cls-8" transform="translate(-292.402 -161.13)"/>
                            <path id="패스_250" d="M296.007 177.42a4.312 4.312 0 0 0 .531 6.125 5.908 5.908 0 0 0 6.952.468z" class="cls-8" transform="translate(-291.625 -158.994)"/>
                            <path id="패스_251" d="M318.117 165.324l-1.21 1.066a11.12 11.12 0 0 0-3.729-3.269l1.219-1.075a2.89 2.89 0 0 1 3.729 0 2.131 2.131 0 0 1-.009 3.278z" class="cls-8" transform="translate(-286.121 -161.365)"/>
                        </g>
                    </g>
                    <path id="패스_252" fill="#08b29d" d="M313.118 145.693c12.589 3.321 21.772 13.6 21.772 25.774 0 14.863-13.674 26.914-30.54 26.914a32.407 32.407 0 0 1-22.44-8.7 30.363 30.363 0 0 0 3.106 4.832 6.8 6.8 0 0 1 .817 7.2l-2.793 5.927 11.417-2.609a9.688 9.688 0 0 1 5.59.381 39.576 39.576 0 0 0 17.517 2.411c16.625-1.419 30.077-13.25 31.683-27.9 2.068-18.882-15.008-34.717-36.129-34.23z" transform="translate(-278.724 -145.672)"/>
                </g>
                <path id="패스_253" d="M165.351 123.3l7.717 15.606a1.5 1.5 0 0 1-.927 2.065l-.275.1a1.876 1.876 0 0 1-2.345-.83l-7.441-15.711a1.517 1.517 0 0 1 1.024-2.08 1.87 1.87 0 0 1 2.247.85z" class="cls-3" transform="translate(-161.939 -108.714)"/>
            </g>
        </g>
        <g id="그룹_761" transform="translate(160.315 106.861)">
            <path id="패스_254" d="M189.091 218.877c-3.135 0-5.674 2.238-5.674 5s2.539 5 5.674 5 5.673-2.238 5.673-5-2.539-5-5.673-5zm0 7.024a2.04 2.04 0 1 1 2.3-2.023 2.173 2.173 0 0 1-2.3 2.022z" class="cls-1" transform="translate(-153.331 -89.648)"/>
            <path id="패스_255" d="M305.838 236.507c-3.135 0-5.674 2.238-5.674 5s2.54 5 5.674 5 5.673-2.238 5.673-5-2.539-5-5.673-5zm0 7.024a2.04 2.04 0 1 1 2.3-2.024 2.174 2.174 0 0 1-2.3 2.024z" class="cls-1" transform="translate(-118.037 -87.045)"/>
            <path id="패스_256" d="M341.172 168.839a3.859 3.859 0 1 0 4.344 3.829 4.11 4.11 0 0 0-4.344-3.829zm0 5.378a1.562 1.562 0 1 1 1.758-1.549 1.664 1.664 0 0 1-1.758 1.549z" class="cls-1" transform="translate(-106.953 -97.037)"/>
            <path id="패스_257" d="M282.493 115.477a4.08 4.08 0 1 0 4.593 4.048 4.346 4.346 0 0 0-4.593-4.048zm0 5.687a1.651 1.651 0 1 1 1.858-1.639 1.759 1.759 0 0 1-1.858 1.639z" class="cls-1" transform="translate(-124.768 -104.916)"/>
            <path id="패스_258" d="M169.729 197.656a4.29 4.29 0 1 0 4.83 4.256 4.569 4.569 0 0 0-4.83-4.256z" class="cls-1" transform="translate(-158.929 -92.782)"/>
            <path id="패스_259" d="M318.2 209.931a3.12 3.12 0 1 0 3.512 3.1 3.324 3.324 0 0 0-3.512-3.1z" class="cls-1" transform="translate(-113.647 -90.969)"/>
            <path id="패스_260" d="M229.26 116.586c-2.835 0-5.134 2.026-5.134 4.524s2.3 4.524 5.134 4.524 5.134-2.026 5.134-4.524-2.299-4.524-5.134-4.524z" class="cls-1" transform="translate(-141.024 -104.752)"/>
            <path id="패스_261" d="M250.04 259.374a3.323 3.323 0 1 0 3.74 3.3 3.54 3.54 0 0 0-3.74-3.3z" class="cls-1" transform="translate(-134.321 -83.669)"/>
            <path id="패스_262" d="M305.791 131.79a3.9 3.9 0 1 0 4.391 3.87 4.155 4.155 0 0 0-4.391-3.87z" class="cls-1" transform="translate(-117.663 -102.507)"/>
            <ellipse id="타원_14" cx="2.499" cy="2.202" class="cls-1" rx="2.499" ry="2.202" transform="translate(30.11 59.365)"/>
            <path id="패스_263" d="M342.319 152.026a3.787 3.787 0 1 0 4.264 3.759 4.035 4.035 0 0 0-4.264-3.759z" class="cls-1" transform="translate(-106.583 -99.519)"/>
            <ellipse id="타원_15" cx="2.721" cy="2.397" class="cls-1" rx="2.721" ry="2.397" transform="translate(5.685 72.39)"/>
            <path id="패스_264" d="M256.088 110.07l1.709-1.506a1.236 1.236 0 0 0 0-1.9 1.675 1.675 0 0 0-2.153 0l-1.709 1.506-1.709-1.506a1.677 1.677 0 0 0-2.154 0 1.236 1.236 0 0 0 0 1.9l1.709 1.506-1.709 1.506a1.236 1.236 0 0 0 0 1.9 1.677 1.677 0 0 0 2.154 0l1.709-1.506 1.709 1.506a1.675 1.675 0 0 0 2.153 0 1.236 1.236 0 0 0 0-1.9z" class="cls-1" transform="translate(-133.315 -106.275)"/>
            <path id="패스_265" d="M166.776 149.72l1.709-1.506a1.236 1.236 0 0 0 0-1.9 1.677 1.677 0 0 0-2.154 0l-1.709 1.506-1.709-1.506a1.677 1.677 0 0 0-2.154 0 1.236 1.236 0 0 0 0 1.9l1.709 1.506-1.709 1.506a1.236 1.236 0 0 0 0 1.9 1.68 1.68 0 0 0 2.154 0l1.709-1.506 1.709 1.506a1.68 1.68 0 0 0 2.154 0 1.236 1.236 0 0 0 0-1.9z" class="cls-1" transform="translate(-160.315 -100.42)"/>
            <path id="패스_266" d="M321.293 229.763l1.448-1.275a1.047 1.047 0 0 0 0-1.608 1.421 1.421 0 0 0-1.825 0l-1.447 1.275-1.447-1.275a1.421 1.421 0 0 0-1.825 0 1.046 1.046 0 0 0 0 1.608l1.447 1.275-1.447 1.275a1.046 1.046 0 0 0 0 1.608 1.421 1.421 0 0 0 1.825 0l1.447-1.275 1.447 1.275a1.421 1.421 0 0 0 1.825 0 1.047 1.047 0 0 0 0-1.608z" class="cls-1" transform="translate(-113.304 -88.516)"/>
        </g>
    </g>
</svg>
