<svg xmlns="http://www.w3.org/2000/svg" width="32" height="32"><defs><style>.cls-1{fill:#ffe812}</style></defs><g id="카카오" transform="translate(-1016.046 -51.914)"><rect id="사각형_17454" width="32" height="32" class="cls-1" rx="16" transform="translate(1016.046 51.914)"/><g id="그룹_1900" transform="translate(1022.936 59.701)"><path id="패스_4219" d="M1062.51 94.126c-5.031 0-9.109 3.216-9.109 7.182a7 7 0 004.27 6.086c-.139.481-.9 3.1-.927 3.3 0 0-.018.154.082.213a.274.274 0 00.217.013c.287-.04 3.324-2.173 3.849-2.544a11.544 11.544 0 001.618.113c5.031 0 9.109-3.216 9.109-7.182s-4.078-7.182-9.109-7.182z" transform="translate(-1053.401 -94.126)"/><path id="패스_4220" d="M1067.251 126.082a.515.515 0 01-.526-.5v-3.122h-.82a.515.515 0 110-1.029h2.691a.515.515 0 110 1.029h-.82v3.122a.515.515 0 01-.525.5zm4.608-.007a.431.431 0 01-.437-.232l-.26-.681h-1.6l-.261.682a.431.431 0 01-.437.232.8.8 0 01-.334-.072c-.145-.067-.284-.25-.124-.746l1.257-3.309a.732.732 0 011.4 0l1.256 3.307c.16.5.021.681-.124.747a.8.8 0 01-.334.072zm-.974-1.844l-.525-1.491-.525 1.491zm2.278 1.775a.493.493 0 01-.5-.482v-3.569a.536.536 0 011.073 0v3.088h1.117a.482.482 0 110 .963zm2.92.07a.526.526 0 01-.526-.526v-3.6a.526.526 0 011.051 0v1.13l1.466-1.466a.408.408 0 01.292-.117.533.533 0 01.516.488.41.41 0 01-.116.32l-1.2 1.2 1.294 1.714a.525.525 0 11-.839.633l-1.233-1.633-.182.182v1.147a.526.526 0 01-.526.526z" class="cls-1" transform="translate(-1063.179 -116.393)"/></g></g></svg>