<svg xmlns="http://www.w3.org/2000/svg" width="32" height="32"><g transform="translate(-860 -393)"><rect width="32" height="32" fill="#333" rx="16" transform="translate(860 393)"/><path fill="#fff" d="M877.292 413.991l-2.707 2.709a4.444 4.444 0 01-6.285-6.285l3.65-3.649a4.416 4.416 0 017.1 1.145l-1.195 1.194a2.871 2.871 0 00-4.8-1.24l-3.655 3.651a2.887 2.887 0 004.083 4.084l1.817-1.822a5.612 5.612 0 001.992.213zm.121-12.691l-2.681 2.684a5.677 5.677 0 011.99.212l1.795-1.796a2.888 2.888 0 114.083 4.085l-3.623 3.623a2.893 2.893 0 01-4.079 0 2.825 2.825 0 01-.717-1.232l-.063.051-1.144 1.137a4.414 4.414 0 007.1 1.146l3.626-3.624a4.445 4.445 0 00-6.287-6.286z"/></g></svg>