<svg xmlns="http://www.w3.org/2000/svg" width="24" height="20"><path fill="#333" d="M6 20l6-8H8V0H4v12H0zm13.936-6.323a2.291 2.291 0 013.737.691A5.453 5.453 0 0124 16.312a6.177 6.177 0 01-.313 2.129A2.181 2.181 0 0121.5 20a1.951 1.951 0 01-2.056-1.758h1.32a.754.754 0 00.8.67c.9 0 1.06-1 1.1-1.893a1.918 1.918 0 01-2.73.016 2.554 2.554 0 010-3.358zm2.23 2.677a1.449 1.449 0 00.184-1.907.968.968 0 00-1.314-.144 1.612 1.612 0 00-.137 1.909 1.009 1.009 0 001.267.142zM18 3.475v-1.5c.565-.025 3.163.046 3.163-1.977H23V11h-2.255V3.475H18z"/></svg>