<svg xmlns="http://www.w3.org/2000/svg" width="13" height="14.999"><path fill="none" stroke="#0a0a0a" stroke-linejoin="round" d="M6.5 14.5a2.752 2.752 0 01-2.749-2.749 1.308 1.308 0 010-.138h.124a7.521 7.521 0 01-3.378-.947l1.1-1.307a4.209 4.209 0 001.038-2.735v-.665c0-1.79 1.719-3.247 3.835-3.257H4.842v-.55a1.65 1.65 0 013.3 0v.549H6.514c2.117.01 3.835 1.467 3.835 3.257v.665a4.209 4.209 0 001.038 2.735l1.106 1.307a7.646 7.646 0 01-3.379.948h.123a.937.937 0 01.007.138A2.753 2.753 0 016.5 14.5zm-2.62-2.887a24.945 24.945 0 005.242 0z"/></svg>