<svg xmlns="http://www.w3.org/2000/svg" width="32" height="32"><path fill="#fff" d="M10.977.879a16.257 16.257 0 00-9.24 7.938 15.144 15.144 0 00-1.412 4.026 15.672 15.672 0 001.416 10.342 16.3 16.3 0 0010.363 8.277 17.888 17.888 0 008.359.085 14.834 14.834 0 006.684-3.4 14.544 14.544 0 004.13-6.637 18.366 18.366 0 00.415-8.5H16.335v6.246h8.895a7.507 7.507 0 01-3.264 4.942 9.383 9.383 0 01-3.589 1.391 10.806 10.806 0 01-3.9-.017 9.693 9.693 0 01-3.627-1.54 10.026 10.026 0 01-3.748-4.909 9.507 9.507 0 010-6.229A9.893 9.893 0 019.461 9.12a9.507 9.507 0 014.87-2.657 9.745 9.745 0 014.784.186 8.945 8.945 0 013.524 2.03l3.005-2.945c.518-.525 1.071-1.032 1.589-1.574A15.527 15.527 0 0021.982.979a16.789 16.789 0 00-11.005-.1z"/><path fill="#ea4535" d="M10.98.879a16.79 16.79 0 0111 .1 15.8 15.8 0 015.25 3.182c-.5.542-1.054 1.049-1.589 1.574L22.64 8.679a8.826 8.826 0 00-3.523-2.031 9.753 9.753 0 00-4.784-.186 9.6 9.6 0 00-4.87 2.64 9.893 9.893 0 00-2.369 3.777c-1.779-1.356-3.554-2.71-5.354-4.064A16.311 16.311 0 0110.98.879z"/><path fill="#f9bc15" d="M.325 12.826a16 16 0 011.416-4.028c1.779 1.354 3.575 2.708 5.354 4.062a9.507 9.507 0 000 6.229c-1.779 1.354-3.558 2.709-5.354 4.062A15.581 15.581 0 01.325 12.826z"/><path fill="#557ebf" d="M16.317 12.996h15.354a18.377 18.377 0 01-.415 8.5 14.457 14.457 0 01-4.128 6.635c-1.727-1.32-3.454-2.624-5.181-3.944a7.507 7.507 0 003.264-4.942h-8.894z"/><path fill="#36a852" d="M1.74 23.185c1.779-1.354 3.558-2.708 5.354-4.062a9.908 9.908 0 007.375 6.449 11.2 11.2 0 003.9.017 9.383 9.383 0 003.592-1.388c1.727 1.32 3.454 2.624 5.181 3.944a14.833 14.833 0 01-6.684 3.4 17.892 17.892 0 01-8.359-.085 16.4 16.4 0 01-5.924-2.928 16.074 16.074 0 01-4.435-5.347z"/></svg>