<svg xmlns="http://www.w3.org/2000/svg" width="24" height="20"><path fill="#333" d="M6 20l6-8H8V0H4v12H0zm12.43-4.814v-.934c.352-.015 1.9.029 1.9-1.232h1.146V20H20.07v-4.814h-1.64zM17.5 1.089A3.674 3.674 0 0120.169 0a3.491 3.491 0 013.311 2.194A8.514 8.514 0 0124 5.445c0 3.048-.947 5.757-3.994 5.757a3.121 3.121 0 01-3.288-2.812h2.112a1.2 1.2 0 001.27 1.071c1.445 0 1.693-1.6 1.763-3.027-1.033 1.3-3.106 1.15-4.366.026-1.388-1.238-1.291-3.98 0-5.371zm3.566 4.282a1.751 1.751 0 00.722-1.6 2.265 2.265 0 00-.428-1.451 1.419 1.419 0 00-1.172-.536 1.46 1.46 0 00-.93.305 1.929 1.929 0 00-.606 1.611 2.24 2.24 0 00.391 1.439 1.456 1.456 0 001.2.48 1.473 1.473 0 00.825-.252z"/></svg>