<svg xmlns="http://www.w3.org/2000/svg" width="32" height="32"><path fill="#333" d="M27.319 4.688A16 16 0 1032.002 16a15.954 15.954 0 00-4.683-11.312zm-4.538 7.832a9.944 9.944 0 01-15.3 8.834 7.028 7.028 0 005.179-1.445 3.506 3.506 0 01-3.268-2.432 3.518 3.518 0 001.58-.057 3.5 3.5 0 01-2.8-3.475 3.542 3.542 0 001.585.439 3.5 3.5 0 01-1.084-4.673 9.918 9.918 0 007.208 3.656 3.5 3.5 0 015.963-3.191 6.932 6.932 0 002.22-.852 3.488 3.488 0 01-1.545 1.939 7.053 7.053 0 002.008-.547 7.082 7.082 0 01-1.748 1.804z"/></svg>