<svg xmlns="http://www.w3.org/2000/svg" width="32" height="32"><circle cx="16" cy="16" r="16" fill="#1da1f2"/><path fill="#fff" d="M13.076 24.44a10.9 10.9 0 0010.972-10.98c0-.168 0-.336-.008-.5a7.9 7.9 0 001.928-2 7.83 7.83 0 01-2.216.608 3.855 3.855 0 001.7-2.136 7.812 7.812 0 01-2.448.936 3.86 3.86 0 00-6.672 2.64 3.535 3.535 0 00.1.88A10.943 10.943 0 018.476 9.86a3.856 3.856 0 001.2 5.144 3.789 3.789 0 01-1.744-.48v.048a3.862 3.862 0 003.1 3.784 3.845 3.845 0 01-1.016.136 3.683 3.683 0 01-.728-.072 3.852 3.852 0 003.6 2.68 7.755 7.755 0 01-4.792 1.648 7.013 7.013 0 01-.92-.056 10.748 10.748 0 005.9 1.744"/></svg>